<?xml version="1.0" encoding="UTF-8" standalone="no"?>
<!-- Created with Inkscape (http://www.inkscape.org/) -->

<svg
   xmlns:dc="http://purl.org/dc/elements/1.1/"
   xmlns:cc="http://creativecommons.org/ns#"
   xmlns:rdf="http://www.w3.org/1999/02/22-rdf-syntax-ns#"
   xmlns:svg="http://www.w3.org/2000/svg"
   xmlns="http://www.w3.org/2000/svg"
   xmlns:sodipodi="http://sodipodi.sourceforge.net/DTD/sodipodi-0.dtd"
   xmlns:inkscape="http://www.inkscape.org/namespaces/inkscape"
   width="744.09448819"
   height="1052.3622047"
   id="svg2"
   version="1.1"
   inkscape:version="0.48.5 r10040"
   inkscape:export-filename="/home/morten/devel/observationlogger/app/src/main/res/drawable/obsloggerlogo.png"
   inkscape:export-xdpi="90"
   inkscape:export-ydpi="90"
   sodipodi:docname="New document 1">
  <defs
     id="defs4" />
  <sodipodi:namedview
     id="base"
     pagecolor="#ffffff"
     bordercolor="#666666"
     borderopacity="1.0"
     inkscape:pageopacity="0.0"
     inkscape:pageshadow="2"
     inkscape:zoom="0.35"
     inkscape:cx="375"
     inkscape:cy="520"
     inkscape:document-units="px"
     inkscape:current-layer="layer1"
     showgrid="false"
     inkscape:window-width="1920"
     inkscape:window-height="1060"
     inkscape:window-x="1277"
     inkscape:window-y="-3"
     inkscape:window-maximized="1" />
  <metadata
     id="metadata7">
    <rdf:RDF>
      <cc:Work
         rdf:about="">
        <dc:format>image/svg+xml</dc:format>
        <dc:type
           rdf:resource="http://purl.org/dc/dcmitype/StillImage" />
        <dc:title></dc:title>
      </cc:Work>
    </rdf:RDF>
  </metadata>
  <g
     inkscape:label="Layer 1"
     inkscape:groupmode="layer"
     id="layer1">
    <rect
       style="fill:none;fill-opacity:1;stroke:#000000;stroke-width:2.20000000000000018;stroke-miterlimit:4;stroke-opacity:1;stroke-dasharray:none;stroke-dashoffset:0"
       id="rect2985"
       width="94.285713"
       height="102.85714"
       x="71.428574"
       y="432.36218" />
    <path
       style="fill:#008a06;fill-opacity:1;stroke:#000000;stroke-width:0;stroke-miterlimit:4;stroke-opacity:1;stroke-dasharray:none;stroke-dashoffset:0"
       id="path3759"
       d="m 88.68978,417.62653 c 8.53744,8.48337 15.35142,18.39506 21.72383,28.54409 6.23088,10.33537 11.99649,20.92401 17.168,31.82693 2.89841,5.94261 5.12132,12.13463 7.56492,18.25506 2.30552,5.00223 2.90249,10.49738 4.06131,15.82524 0.94826,6.94303 2.63616,13.74215 3.90731,20.62602 0.79878,4.23051 1.57291,8.51547 2.59843,12.69622 -39.37338,17.15897 -40.59563,30.0217 -37.37637,13.84213 1.05501,-5.30233 2.56811,-10.37452 4.29069,-15.49621 2.34467,-7.00036 4.3181,-14.11279 7.34111,-20.86197 2.13935,-5.21796 4.03568,-10.51829 6.36079,-15.66281 3.30989,-7.3854 6.59045,-14.78674 9.68302,-22.26572 3.41281,-8.34378 6.89637,-16.66313 10.60321,-24.88156 2.66693,-6.30156 6.15324,-12.1891 9.24998,-18.27889 2.32669,-3.54722 3.55458,-7.50283 4.67043,-11.54372 0,0 38.45367,-18.02612 38.45367,-18.02612 l 0,0 c -1.67832,4.02566 -1.82088,8.6155 -4.42602,12.30287 -3.61146,5.72601 -6.466,12.03172 -9.5377,18.06275 -3.97484,8.05243 -7.2856,16.40948 -10.82257,24.66011 -2.7903,7.61011 -6.28859,14.93441 -9.39749,22.41169 -2.39862,5.11822 -4.46968,10.29918 -6.28949,15.63662 -3.16304,6.64924 -5.74262,13.44802 -7.71327,20.56839 -1.31966,3.71921 -2.71556,7.50476 -3.71871,11.32581 -5.39534,20.55123 14.76306,1.41961 -39.83929,26.94044 1.59272,-0.16572 -1.63091,-10.06968 -1.50028,-11.56463 -1.13565,-6.8508 -2.90763,-13.56911 -3.8336,-20.45557 -1.14141,-5.09344 -1.81107,-10.3288 -3.831769,-15.17002 -2.406926,-6.06064 -4.311091,-12.32894 -7.094336,-18.25834 -4.875452,-10.84845 -10.504202,-21.31785 -16.667937,-31.49041 -6.245939,-9.89691 -12.911352,-19.63668 -21.763409,-27.42451 0,0 36.135541,-22.14389 36.135541,-22.14389 z"
       inkscape:connector-curvature="0" />
    <rect
       style="fill:none;fill-opacity:1;stroke:#000000;stroke-width:2.20000004999999987;stroke-miterlimit:4;stroke-opacity:1;stroke-dasharray:none;stroke-dashoffset:0"
       id="rect2985-4"
       width="94.285713"
       height="102.85714"
       x="75.714287"
       y="572.36218" />
    <rect
       style="fill:none;stroke:#000000;stroke-width:2.20000005;stroke-miterlimit:4;stroke-opacity:1;stroke-dasharray:none;stroke-dashoffset:0"
       id="rect2985-4-4"
       width="94.285713"
       height="102.85714"
       x="232.85715"
       y="569.505" />
    <path
       style="fill:#008a06;fill-opacity:1;stroke:#000000;stroke-width:0;stroke-miterlimit:4;stroke-opacity:1;stroke-dasharray:none;stroke-dashoffset:0"
       id="path3759-1"
       d="m 251.48904,550.54397 c 8.53744,8.48337 15.35142,18.39506 21.72383,28.54409 6.23088,10.33537 11.99649,20.92401 17.168,31.82693 2.89841,5.94261 5.12132,12.13463 7.56492,18.25506 2.30552,5.00223 2.90249,10.49738 4.06131,15.82524 0.94826,6.94303 2.63616,13.74215 3.90731,20.62602 0.79878,4.23051 1.57291,8.51547 2.59843,12.69622 -39.37338,17.15897 -40.59563,30.0217 -37.37637,13.84213 1.05501,-5.30233 2.56811,-10.37452 4.29069,-15.49621 2.34467,-7.00036 4.3181,-14.11279 7.34111,-20.86197 2.13935,-5.21796 4.03568,-10.51829 6.36079,-15.66281 3.30989,-7.3854 6.59045,-14.78674 9.68302,-22.26572 3.41281,-8.34378 6.89637,-16.66313 10.60321,-24.88156 2.66693,-6.30156 6.15324,-12.1891 9.24998,-18.27889 2.32669,-3.54722 3.55458,-7.50283 4.67043,-11.54372 0,0 38.45366,-18.02612 38.45366,-18.02612 l 0,0 c -1.67832,4.02566 -1.82087,8.6155 -4.42601,12.30287 -3.61146,5.72601 -6.46601,12.03172 -9.5377,18.06275 -3.97484,8.05243 -7.28561,16.40948 -10.82258,24.66011 -2.7903,7.61011 -6.28859,14.93441 -9.39749,22.41169 -2.39862,5.11822 -4.46967,10.29918 -6.28949,15.63662 -3.16303,6.64924 -5.74262,13.44802 -7.71326,20.56839 -1.31966,3.71921 -2.71556,7.50476 -3.71871,11.32581 -5.39534,20.55123 14.76305,1.41961 -39.83929,26.94044 1.59272,-0.16572 -1.63091,-10.06968 -1.50028,-11.56463 -1.13565,-6.8508 -2.90763,-13.56911 -3.8336,-20.45557 -1.14141,-5.09344 -1.81107,-10.3288 -3.83177,-15.17002 -2.40693,-6.06064 -4.31109,-12.32894 -7.09434,-18.25834 -4.87545,-10.84845 -10.5042,-21.31785 -16.66794,-31.49041 -6.24594,-9.89691 -12.91135,-19.63668 -21.76341,-27.42451 0,0 36.13555,-22.14389 36.13555,-22.14389 z"
       inkscape:connector-curvature="0" />
    <rect
       style="fill:none;stroke:#000000;stroke-width:2.20000005;stroke-miterlimit:4;stroke-opacity:1;stroke-dasharray:none;stroke-dashoffset:0"
       id="rect2985-4-5"
       width="94.285713"
       height="102.85714"
       x="227.14285"
       y="420.93359" />
  </g>
</svg>
